<svg xmlns="http://www.w3.org/2000/svg" version="1.1" xmlns:xlink="http://www.w3.org/1999/xlink" xmlns:svgjs="http://svgjs.dev/svgjs" width="2000" height="338" viewBox="0 0 2000 338"><g transform="matrix(1,0,0,1,-1.2121212121212466,-0.002663032127202314)"><svg viewBox="0 0 396 67" data-background-color="#ffffff" preserveAspectRatio="xMidYMid meet" height="338" width="2000" xmlns="http://www.w3.org/2000/svg" xmlns:xlink="http://www.w3.org/1999/xlink"><g id="tight-bounds" transform="matrix(1,0,0,1,0.2400000000000091,0.0005278791494731649)"><svg viewBox="0 0 395.52 66.99894424170107" height="66.99894424170107" width="395.52"><g><svg viewBox="0 0 500.5071593818984 84.78320000000001" height="66.99894424170107" width="395.52"><g><svg viewBox="0 0 500.5071593818984 84.78320000000001" height="84.78320000000001" width="500.5071593818984"><g id="textblocktransform"><svg viewBox="0 0 500.5071593818984 84.78320000000001" height="84.78320000000001" width="500.5071593818984" id="textblock"><g><svg viewBox="0 0 500.5071593818984 84.78320000000001" height="84.78320000000001" width="500.5071593818984"><g><svg><g></g><g></g></svg></g><g><svg><g></g><g><svg></svg></g></svg></g><g id="text-0"><svg viewBox="0 0 500.5071593818984 84.78320000000001" height="84.78320000000001" width="500.5071593818984"><g><svg xmlns:x="http://ns.adobe.com/Extensibility/1.0/" xmlns:i="http://ns.adobe.com/AdobeIllustrator/10.0/" xmlns:graph="http://ns.adobe.com/Graphs/1.0/" xmlns="http://www.w3.org/2000/svg" xmlns:xlink="http://www.w3.org/1999/xlink" version="1.1" x="0" y="0" viewBox="4.6 4.7 90.80000000000001 90.60000000000001" enable-background="new 0 0 100 100" xml:space="preserve" height="84.78320000000001" width="84.97035938189846" class="icon-cg-0" data-fill-palette-color="accent" id="cg-0"><path d="M37.6 48.8c0 0.8-0.7 1.5-1.5 1.5h-5.6c-0.8 0-1.5-0.7-1.5-1.5v-5.6c0-0.8 0.7-1.5 1.5-1.5h5.6c0.8 0 1.5 0.7 1.5 1.5V48.8zM49.4 43.2c0-0.8-0.7-1.5-1.5-1.5h-5.6c-0.8 0-1.5 0.7-1.5 1.5v5.6c0 0.8 0.7 1.5 1.5 1.5h5.6c0.8 0 1.5-0.7 1.5-1.5V43.2zM61.2 43.2c0-0.8-0.7-1.5-1.5-1.5H54c-0.8 0-1.5 0.7-1.5 1.5v5.6c0 0.8 0.7 1.5 1.5 1.5h5.6c0.8 0 1.5-0.7 1.5-1.5V43.2zM37.6 54.6c0-0.8-0.7-1.5-1.5-1.5h-5.6c-0.8 0-1.5 0.7-1.5 1.5v5.6c0 0.8 0.7 1.5 1.5 1.5h5.6c0.8 0 1.5-0.7 1.5-1.5V54.6zM49.4 54.6c0-0.8-0.7-1.5-1.5-1.5h-5.6c-0.8 0-1.5 0.7-1.5 1.5v5.6c0 0.8 0.7 1.5 1.5 1.5h5.6c0.8 0 1.5-0.7 1.5-1.5V54.6zM59.7 53.1H54c-0.8 0-1.5 0.7-1.5 1.5v5.6c0 0.8 0.7 1.5 1.5 1.5h5.6c0.8 0 1.5-0.7 1.5-1.5v-5.6C61.2 53.8 60.5 53.1 59.7 53.1zM24.3 64.6h-5.6c-0.8 0-1.5 0.7-1.5 1.5v5.6c0 0.8 0.7 1.5 1.5 1.5h5.6c0.8 0 1.5-0.7 1.5-1.5v-5.6C25.8 65.3 25.2 64.6 24.3 64.6zM25.8 54.6c0-0.8-0.7-1.5-1.5-1.5h-5.6c-0.8 0-1.5 0.7-1.5 1.5v5.6c0 0.8 0.7 1.5 1.5 1.5h5.6c0.8 0 1.5-0.7 1.5-1.5V54.6zM47.9 64.6h-5.6c-0.8 0-1.5 0.7-1.5 1.5v5.6c0 0.8 0.7 1.5 1.5 1.5h5.6c0.8 0 1.5-0.7 1.5-1.5v-5.6C49.4 65.3 48.7 64.6 47.9 64.6zM36.1 64.6h-5.6c-0.8 0-1.5 0.7-1.5 1.5v5.6c0 0.8 0.7 1.5 1.5 1.5h5.6c0.8 0 1.5-0.7 1.5-1.5v-5.6C37.6 65.3 36.9 64.6 36.1 64.6zM65.8 41.7c-0.8 0-1.5 0.7-1.5 1.5v5.6c0 0.8 0.7 1.5 1.5 1.5h5.6c0.8 0 1.5-0.7 1.5-1.5v-5.6c0-0.8-0.7-1.5-1.5-1.5H65.8zM4.6 22.2v54.4c0 4.9 4 8.8 8.8 8.8h42.8c-0.7-2.2-1.1-4.5-1.1-6.8H13.5c-1.1 0-2-0.9-2-2V36.4h67.1v18.8c2.4 0 4.7 0.4 6.8 1V22.2c0-4.9-4-8.8-8.8-8.8h-9.9V7.9c0-1.8-1.4-3.2-3.2-3.2h-5c-1.8 0-3.2 1.4-3.2 3.2v5.5H34.9V7.9c0-1.8-1.4-3.2-3.2-3.2h-5c-1.8 0-3.2 1.4-3.2 3.2v5.5h-9.9C8.6 13.4 4.6 17.4 4.6 22.2zM95.4 78.4c0 9.3-7.6 16.9-16.9 16.9-9.3 0-16.9-7.6-16.9-16.9 0-9.3 7.6-16.9 16.9-16.9C87.8 61.5 95.4 69.1 95.4 78.4zM87 74.7l-3.2-3.2-7.4 7.4-3.1-3.1L69.9 79l3.1 3.1 3.2 3.3 3.3-3.2L87 74.7z" fill="#624cf5" data-fill-palette-color="accent"></path></svg><g></g></g><g transform="matrix(1,0,0,1,104.98715938189846,0.3696048661800546)"><svg width="395.52" viewBox="3.45 -39.2 246.58 52.400000000000006" height="84.0439902676399" data-palette-color="#000000"><path d="M23.7-29.25L10.45-29.25 10.45-20.5 22.2-20.5 22.2-14.95 10.45-14.95 10.45-5.7 23.7-5.7 23.7 0 3.45 0 3.45-34.95 23.7-34.95 23.7-29.25ZM34.6-27.7L41.6-6.45 48.6-27.7 56.05-27.7 45.8 0 37.3 0 27.1-27.7 34.6-27.7ZM85.75-14.45Q85.75-12.95 85.55-11.75L85.55-11.75 65.3-11.75Q65.55-8.75 67.4-7.05 69.25-5.35 71.95-5.35L71.95-5.35Q75.84-5.35 77.5-8.7L77.5-8.7 85.05-8.7Q83.84-4.7 80.45-2.13 77.05 0.45 72.09 0.45L72.09 0.45Q68.09 0.45 64.92-1.33 61.75-3.1 59.97-6.35 58.2-9.6 58.2-13.85L58.2-13.85Q58.2-18.15 59.95-21.4 61.7-24.65 64.84-26.4 68-28.15 72.09-28.15L72.09-28.15Q76.05-28.15 79.17-26.45 82.3-24.75 84.02-21.63 85.75-18.5 85.75-14.45L85.75-14.45ZM65.34-16.45L78.5-16.45Q78.45-19.15 76.55-20.78 74.65-22.4 71.9-22.4L71.9-22.4Q69.3-22.4 67.52-20.83 65.75-19.25 65.34-16.45L65.34-16.45ZM106.19-28.1Q111.14-28.1 114.19-24.98 117.24-21.85 117.24-16.25L117.24-16.25 117.24 0 110.24 0 110.24-15.3Q110.24-18.6 108.59-20.38 106.94-22.15 104.09-22.15L104.09-22.15Q101.19-22.15 99.52-20.38 97.84-18.6 97.84-15.3L97.84-15.3 97.84 0 90.84 0 90.84-27.7 97.84-27.7 97.84-24.25Q99.24-26.05 101.42-27.08 103.59-28.1 106.19-28.1L106.19-28.1ZM138.24-21.95L132.04-21.95 132.04-8.55Q132.04-7.15 132.72-6.53 133.39-5.9 134.99-5.9L134.99-5.9 138.24-5.9 138.24 0 133.84 0Q124.99 0 124.99-8.6L124.99-8.6 124.99-21.95 121.69-21.95 121.69-27.7 124.99-27.7 124.99-34.55 132.04-34.55 132.04-27.7 138.24-27.7 138.24-21.95ZM155.59 0.45Q151.59 0.45 148.39-1.33 145.19-3.1 143.36-6.35 141.54-9.6 141.54-13.85L141.54-13.85Q141.54-18.1 143.41-21.35 145.29-24.6 148.54-26.38 151.79-28.15 155.79-28.15L155.79-28.15Q159.79-28.15 163.04-26.38 166.29-24.6 168.16-21.35 170.04-18.1 170.04-13.85L170.04-13.85Q170.04-9.6 168.11-6.35 166.19-3.1 162.91-1.33 159.64 0.45 155.59 0.45L155.59 0.45ZM155.59-5.65Q157.49-5.65 159.16-6.58 160.84-7.5 161.84-9.35 162.84-11.2 162.84-13.85L162.84-13.85Q162.84-17.8 160.76-19.93 158.69-22.05 155.69-22.05L155.69-22.05Q152.69-22.05 150.66-19.93 148.64-17.8 148.64-13.85L148.64-13.85Q148.64-9.9 150.61-7.78 152.59-5.65 155.59-5.65L155.59-5.65ZM182.19-23.7Q183.54-25.6 185.91-26.88 188.29-28.15 191.34-28.15L191.34-28.15Q194.89-28.15 197.76-26.4 200.64-24.65 202.31-21.43 203.99-18.2 203.99-13.95L203.99-13.95Q203.99-9.7 202.31-6.43 200.64-3.15 197.76-1.35 194.89 0.45 191.34 0.45L191.34 0.45Q188.29 0.45 185.96-0.8 183.64-2.05 182.19-3.95L182.19-3.95 182.19 13.2 175.19 13.2 175.19-27.7 182.19-27.7 182.19-23.7ZM196.84-13.95Q196.84-16.45 195.81-18.28 194.79-20.1 193.11-21.05 191.44-22 189.49-22L189.49-22Q187.59-22 185.91-21.03 184.24-20.05 183.21-18.2 182.19-16.35 182.19-13.85L182.19-13.85Q182.19-11.35 183.21-9.5 184.24-7.65 185.91-6.68 187.59-5.7 189.49-5.7L189.49-5.7Q191.44-5.7 193.11-6.7 194.79-7.7 195.81-9.55 196.84-11.4 196.84-13.95L196.84-13.95ZM212.63-31Q210.78-31 209.56-32.18 208.33-33.35 208.33-35.1L208.33-35.1Q208.33-36.85 209.56-38.02 210.78-39.2 212.63-39.2L212.63-39.2Q214.48-39.2 215.71-38.02 216.93-36.85 216.93-35.1L216.93-35.1Q216.93-33.35 215.71-32.18 214.48-31 212.63-31L212.63-31ZM209.08-27.7L216.08-27.7 216.08 0 209.08 0 209.08-27.7ZM221.18-13.95Q221.18-18.15 222.86-21.4 224.53-24.65 227.41-26.4 230.28-28.15 233.83-28.15L233.83-28.15Q236.93-28.15 239.26-26.9 241.58-25.65 242.98-23.75L242.98-23.75 242.98-27.7 250.03-27.7 250.03 0 242.98 0 242.98-4.05Q241.63-2.1 239.26-0.83 236.88 0.45 233.78 0.45L233.78 0.45Q230.28 0.45 227.41-1.35 224.53-3.15 222.86-6.43 221.18-9.7 221.18-13.95L221.18-13.95ZM242.98-13.85Q242.98-16.4 241.98-18.23 240.98-20.05 239.28-21.03 237.58-22 235.63-22L235.63-22Q233.68-22 232.03-21.05 230.38-20.1 229.36-18.28 228.33-16.45 228.33-13.95L228.33-13.95Q228.33-11.45 229.36-9.58 230.38-7.7 232.06-6.7 233.73-5.7 235.63-5.7L235.63-5.7Q237.58-5.7 239.28-6.68 240.98-7.65 241.98-9.47 242.98-11.3 242.98-13.85L242.98-13.85Z" opacity="1" transform="matrix(1,0,0,1,0,0)" fill="#000000" class="wordmark-text-0" data-fill-palette-color="primary"></path></svg></g></svg></g></svg></g></svg></g></svg></g></svg></g><defs></defs></svg><rect width="395.52" height="66.99894424170107" fill="none" stroke="none" visibility="hidden"></rect></g></svg></g></svg>